<svg xmlns="http://www.w3.org/2000/svg" viewBox="0 0 125.73 78.55"><defs><style>.cls-1{fill:#231f20;}</style></defs><title>Asset 1</title><g id="Layer_2" data-name="Layer 2"><g id="Layer_1-2" data-name="Layer 1"><path class="cls-1" d="M62.87,47.14a10.78,10.78,0,0,1-9.51-19.23c-.65,4.48-.62,10.76,1.81,10.76,2.8,0,2.64-8.33,3.83-12.39a10.78,10.78,0,0,1,3.87,20.86Z"/><path class="cls-1" d="M69,2.11C52,8.44,42,18.69,41.3,20.4c-2,4.78,15.56-9.17,8.17-3-1,.87-11.38,9-9.38,9.78,2.46,1,11.68-7.42,13.64-8.15-1.45,1.8-12.2,9.72-12.07,12.67.12,2.65,7.22-3.7,14.71-9.9a22.57,22.57,0,0,0-2,4.87c-.91,3.34-.89,9.58.28,10.81s2.1-1,2.83-7.28c1.18-10.14,7.48-11.62,10.93-9s1.16,7.49-4.13,11.18c-5.87,4.09-2.15,8.54-.56,7.08C92,13.49,92.65-6.74,69,2.11Z"/><path class="cls-1" d="M62.87,47.14c-5.57,2.1-1.88-21,.64-19.9a10.78,10.78,0,0,1-.64,19.9Z"/><path class="cls-1" d="M71,75.27a1.49,1.49,0,0,1,0,.24,1.93,1.93,0,0,1-.24.92,1.62,1.62,0,0,1-.59.6,1.64,1.64,0,0,1-.82.21,1.3,1.3,0,0,1-1.12-.49V77a.18.18,0,0,1-.06.14.2.2,0,0,1-.14.06h-.27a.2.2,0,0,1-.14-.06.18.18,0,0,1-.06-.14V72.21a.18.18,0,0,1,.06-.14.2.2,0,0,1,.14-.06H68a.2.2,0,0,1,.14.06.18.18,0,0,1,.06.14v1.6a1.16,1.16,0,0,1,.43-.35,1.47,1.47,0,0,1,.69-.14,1.59,1.59,0,0,1,.82.21,1.55,1.55,0,0,1,.59.6A1.89,1.89,0,0,1,71,75,1.42,1.42,0,0,1,71,75.27Zm-1,1a1.35,1.35,0,0,0,.31-.84s0-.11,0-.2a1.61,1.61,0,0,0-.28-1,1.05,1.05,0,0,0-1.52-.07,1.15,1.15,0,0,0-.32.79,1.87,1.87,0,0,0,0,.28,2,2,0,0,0,0,.29,1.09,1.09,0,0,0,.32.75,1,1,0,0,0,.73.28A1,1,0,0,0,70,76.32Z"/><path class="cls-1" d="M72.77,78.55h-.3a.17.17,0,0,1-.12,0,.21.21,0,0,1,0-.12.13.13,0,0,1,0-.06L73,76.81l-1.44-3.19v-.06a.15.15,0,0,1,0-.12.17.17,0,0,1,.12,0H72a.22.22,0,0,1,.21.17L73.36,76l1.13-2.48c.05-.11.12-.17.21-.17H75a.21.21,0,0,1,.13,0,.18.18,0,0,1,.05.12s0,0,0,.06L73,78.38A.22.22,0,0,1,72.77,78.55Z"/><path class="cls-1" d="M82.23,73.44a.19.19,0,0,1-.12,0h-.3a.23.23,0,0,1-.13,0,.29.29,0,0,1-.09-.13,1.5,1.5,0,0,0-.41-.44,1.25,1.25,0,0,0-.76-.22,1.3,1.3,0,0,0-.73.2.62.62,0,0,0-.31.56.55.55,0,0,0,.15.4,1.08,1.08,0,0,0,.45.27,7.48,7.48,0,0,0,.92.27,2.9,2.9,0,0,1,1.17.54,1.11,1.11,0,0,1,.34.86,1.28,1.28,0,0,1-.24.77,1.54,1.54,0,0,1-.69.52,2.48,2.48,0,0,1-1,.19,2.38,2.38,0,0,1-1-.2,1.92,1.92,0,0,1-.7-.52,1.09,1.09,0,0,1-.27-.63.17.17,0,0,1,.16-.16H79a.25.25,0,0,1,.13,0,.27.27,0,0,1,.09.13,1.27,1.27,0,0,0,.43.48,1.49,1.49,0,0,0,.84.22,1.72,1.72,0,0,0,.9-.23.68.68,0,0,0,.36-.6.48.48,0,0,0-.19-.4,1.46,1.46,0,0,0-.53-.28c-.22-.08-.55-.17-1-.28a2,2,0,0,1-1-.53,1.21,1.21,0,0,1-.32-.85,1.32,1.32,0,0,1,.2-.7,1.42,1.42,0,0,1,.59-.51,2,2,0,0,1,.94-.2,2.13,2.13,0,0,1,1,.21,1.8,1.8,0,0,1,.64.53,1.13,1.13,0,0,1,.24.57A.16.16,0,0,1,82.23,73.44Z"/><path class="cls-1" d="M84.86,77.11A.18.18,0,0,1,84.8,77V72.28a.18.18,0,0,1,.06-.14.2.2,0,0,1,.14-.06h.3a.2.2,0,0,1,.14.06.18.18,0,0,1,.06.14V77a.18.18,0,0,1-.06.14.2.2,0,0,1-.14.06H85A.2.2,0,0,1,84.86,77.11Z"/><path class="cls-1" d="M91.38,77.11a.75.75,0,0,1-.13-.16L88.89,73.4V77a.21.21,0,0,1-.2.2h-.3a.18.18,0,0,1-.13-.06A.18.18,0,0,1,88.2,77V72.28a.18.18,0,0,1,.06-.14.18.18,0,0,1,.13-.06h.26a.23.23,0,0,1,.16.06.75.75,0,0,1,.13.16l2.36,3.55V72.28a.21.21,0,0,1,.2-.2h.3a.18.18,0,0,1,.13.06.18.18,0,0,1,.06.14V77a.18.18,0,0,1-.06.14.18.18,0,0,1-.13.06h-.26A.25.25,0,0,1,91.38,77.11Z"/><path class="cls-1" d="M95.39,76.51h2.44a.2.2,0,0,1,.14.06.24.24,0,0,1,0,.14V77a.22.22,0,0,1,0,.14.2.2,0,0,1-.14.06H94.89a.2.2,0,0,1-.14-.06.17.17,0,0,1,0-.14V72.28a.17.17,0,0,1,0-.14.2.2,0,0,1,.14-.06h2.88a.2.2,0,0,1,.14.06.18.18,0,0,1,.06.14v.26a.21.21,0,0,1-.2.2H95.39v1.53h2.22a.2.2,0,0,1,.14.06.18.18,0,0,1,.06.14v.26a.16.16,0,0,1-.06.13.2.2,0,0,1-.14.06H95.39Z"/><path class="cls-1" d="M103.66,72.46a1.32,1.32,0,0,1,.5,1.13,1.45,1.45,0,0,1-.29.92,1.51,1.51,0,0,1-.76.51l1.1,1.91a.24.24,0,0,1,0,.08.17.17,0,0,1-.16.16h-.31a.34.34,0,0,1-.31-.2l-1.06-1.85h-1.25V77a.21.21,0,0,1-.2.2h-.29a.21.21,0,0,1-.2-.2V72.28a.21.21,0,0,1,.2-.2h1.76A2,2,0,0,1,103.66,72.46Zm-1.29,2c.73,0,1.1-.3,1.1-.88a.76.76,0,0,0-.28-.65,1.34,1.34,0,0,0-.82-.2h-1.23v1.73Z"/><path class="cls-1" d="M109.59,72.24a1.87,1.87,0,0,1,.69.56,1.15,1.15,0,0,1,.25.61.11.11,0,0,1,0,.11.16.16,0,0,1-.12,0h-.3a.23.23,0,0,1-.21-.08,1.77,1.77,0,0,0-.5-.62,1.45,1.45,0,0,0-.84-.21,1.4,1.4,0,0,0-1,.35,1.29,1.29,0,0,0-.4,1c0,.15,0,.35,0,.6s0,.46,0,.61a1.39,1.39,0,0,0,.39,1,1.41,1.41,0,0,0,1,.35,1.46,1.46,0,0,0,1-.33,1.3,1.3,0,0,0,.38-1.05V75h-1a.21.21,0,0,1-.2-.2v-.26a.2.2,0,0,1,.06-.14.22.22,0,0,1,.14,0h1.54a.19.19,0,0,1,.13,0,.2.2,0,0,1,.06.14v.69a2.19,2.19,0,0,1-.24,1,1.82,1.82,0,0,1-.72.71,2.29,2.29,0,0,1-1.12.25,2,2,0,0,1-1.52-.55,2.14,2.14,0,0,1-.55-1.45c0-.14,0-.36,0-.64s0-.49,0-.64a2.21,2.21,0,0,1,.25-1,1.64,1.64,0,0,1,.69-.69,2.28,2.28,0,0,1,1.13-.26A2.35,2.35,0,0,1,109.59,72.24Z"/><path class="cls-1" d="M113.12,77.11a.18.18,0,0,1-.06-.14V72.28a.21.21,0,0,1,.2-.2h.29a.21.21,0,0,1,.2.2V77a.21.21,0,0,1-.2.2h-.29A.18.18,0,0,1,113.12,77.11Z"/><path class="cls-1" d="M119.82,73.44a.19.19,0,0,1-.12,0h-.3a.25.25,0,0,1-.13,0,.29.29,0,0,1-.09-.13,1.38,1.38,0,0,0-.41-.44,1.24,1.24,0,0,0-.75-.22,1.32,1.32,0,0,0-.74.2.63.63,0,0,0-.3.56.59.59,0,0,0,.14.4,1.06,1.06,0,0,0,.46.27,7.21,7.21,0,0,0,.91.27,2.9,2.9,0,0,1,1.17.54,1.11,1.11,0,0,1,.35.86,1.23,1.23,0,0,1-.25.77,1.57,1.57,0,0,1-.68.52,2.56,2.56,0,0,1-1,.19,2.42,2.42,0,0,1-1-.2,2,2,0,0,1-.7-.52,1.09,1.09,0,0,1-.27-.63.17.17,0,0,1,.16-.16h.3a.25.25,0,0,1,.13,0,.28.28,0,0,1,.1.13,1.23,1.23,0,0,0,.42.48,1.49,1.49,0,0,0,.84.22,1.69,1.69,0,0,0,.9-.23.69.69,0,0,0,.37-.6.49.49,0,0,0-.2-.4,1.41,1.41,0,0,0-.52-.28c-.23-.08-.55-.17-1-.28a2,2,0,0,1-1-.53,1.2,1.2,0,0,1-.31-.85,1.32,1.32,0,0,1,.19-.7,1.42,1.42,0,0,1,.59-.51,2,2,0,0,1,1-.2,2.09,2.09,0,0,1,1,.21,1.8,1.8,0,0,1,.64.53,1.13,1.13,0,0,1,.24.57A.13.13,0,0,1,119.82,73.44Z"/><path class="cls-1" d="M123.09,76.51h2.44a.21.21,0,0,1,.2.2V77a.18.18,0,0,1-.06.14.2.2,0,0,1-.14.06h-2.94a.16.16,0,0,1-.13-.06.18.18,0,0,1-.06-.14V72.28a.18.18,0,0,1,.06-.14.16.16,0,0,1,.13-.06h2.88a.2.2,0,0,1,.14.06.18.18,0,0,1,.06.14v.26a.21.21,0,0,1-.2.2h-2.38v1.53h2.22a.2.2,0,0,1,.14.06.18.18,0,0,1,.06.14v.26a.16.16,0,0,1-.06.13.2.2,0,0,1-.14.06h-2.22Z"/><path class="cls-1" d="M2.1,66.86H9.52a.54.54,0,0,1,.42.17.58.58,0,0,1,.18.42v.8a.6.6,0,0,1-.6.59H.6a.57.57,0,0,1-.42-.17A.58.58,0,0,1,0,68.25V54a.58.58,0,0,1,.18-.42.57.57,0,0,1,.42-.17H9.35a.58.58,0,0,1,.59.59v.8a.61.61,0,0,1-.17.42.58.58,0,0,1-.42.18H2.1V60H8.86a.61.61,0,0,1,.42.17.58.58,0,0,1,.18.42v.8a.62.62,0,0,1-.6.6H2.1Z"/><path class="cls-1" d="M22.41,54a5.34,5.34,0,0,1,2.08,2.16,6.73,6.73,0,0,1,.77,3c0,.89,0,1.54,0,2s0,1.08,0,2a7,7,0,0,1-.79,3,5.34,5.34,0,0,1-2.08,2.16,6.26,6.26,0,0,1-3.23.79,6.32,6.32,0,0,1-3.24-.79,5.34,5.34,0,0,1-2.08-2.16,6.87,6.87,0,0,1-.78-3c0-.45,0-1.1,0-2s0-1.52,0-2a6.73,6.73,0,0,1,.76-3A5.36,5.36,0,0,1,15.91,54a6.36,6.36,0,0,1,3.25-.79A6.39,6.39,0,0,1,22.41,54Zm-6.1,2.23a4.24,4.24,0,0,0-1.15,3.07c0,.45,0,1.06,0,1.86s0,1.41,0,1.86A4.22,4.22,0,0,0,16.31,66a4,4,0,0,0,2.85,1A4,4,0,0,0,22,66,4.3,4.3,0,0,0,23.16,63c0-.89,0-1.51,0-1.86s0-1,0-1.86A4.32,4.32,0,0,0,22,56.18a4,4,0,0,0-2.85-1A4,4,0,0,0,16.31,56.18Z"/><path class="cls-1" d="M38.8,54.51A4.05,4.05,0,0,1,40.3,58a4.34,4.34,0,0,1-.86,2.81,4.69,4.69,0,0,1-2.32,1.54l3.34,5.81a.61.61,0,0,1,.06.25.48.48,0,0,1-.48.48h-.95a1,1,0,0,1-1-.59l-3.21-5.64h-3.8v5.64a.58.58,0,0,1-.59.59h-.91a.61.61,0,0,1-.42-.17.58.58,0,0,1-.18-.42V54a.58.58,0,0,1,.18-.42.61.61,0,0,1,.42-.17H35A6.21,6.21,0,0,1,38.8,54.51Zm-3.93,6.11q3.33,0,3.33-2.67a2.29,2.29,0,0,0-.84-2,4.27,4.27,0,0,0-2.49-.6H31.13v5.25Z"/><path class="cls-1" d="M52,58.64a5.84,5.84,0,0,1,1.37,4.08v.6a.58.58,0,0,1-.18.42.54.54,0,0,1-.42.18h-7.6v.13a3.21,3.21,0,0,0,.9,2.29,3,3,0,0,0,2.2.82A4.17,4.17,0,0,0,50,66.88a3.56,3.56,0,0,0,1.09-.82,1.15,1.15,0,0,1,.32-.24.88.88,0,0,1,.39-.07h.66a.61.61,0,0,1,.45.18.55.55,0,0,1,.15.42,2.48,2.48,0,0,1-.65,1.22,4.34,4.34,0,0,1-1.61,1.06,6.56,6.56,0,0,1-2.51.43A4.76,4.76,0,0,1,44,66.61,6.43,6.43,0,0,1,43.2,64c0-.45-.05-.78-.05-1s0-.57.05-1A6,6,0,0,1,44,59.52a4.89,4.89,0,0,1,1.75-1.75,5,5,0,0,1,2.53-.64A4.77,4.77,0,0,1,52,58.64Zm-.62,3.42V62a2.82,2.82,0,0,0-.85-2.15,3.43,3.43,0,0,0-4.44,0A2.85,2.85,0,0,0,45.16,62v.07Z"/><path class="cls-1" d="M56.12,60.45a3,3,0,0,1,.49-1.66,3.36,3.36,0,0,1,1.45-1.2,5.35,5.35,0,0,1,2.35-.46,6.44,6.44,0,0,1,2.36.4,4,4,0,0,1,1.52,1,1.85,1.85,0,0,1,.52,1.15.51.51,0,0,1-.18.39.61.61,0,0,1-.42.17h-.73a.81.81,0,0,1-.66-.31A2.88,2.88,0,0,0,60.41,59a3.2,3.2,0,0,0-1.65.38,1.16,1.16,0,0,0-.63,1,1.11,1.11,0,0,0,.31.84,2.37,2.37,0,0,0,.93.46c.41.12,1.14.3,2.19.53a5.34,5.34,0,0,1,2.76,1.28,2.94,2.94,0,0,1,.82,2.1,2.8,2.8,0,0,1-.56,1.68A4,4,0,0,1,63,68.59a5.81,5.81,0,0,1-2.44.47,6.3,6.3,0,0,1-2.42-.43,4.29,4.29,0,0,1-1.62-1,1.75,1.75,0,0,1-.58-1.17.51.51,0,0,1,.18-.38.61.61,0,0,1,.42-.17h.79a1.88,1.88,0,0,1,.36,0,.6.6,0,0,1,.29.25,2.94,2.94,0,0,0,2.58,1,3.68,3.68,0,0,0,1.82-.43,1.23,1.23,0,0,0,.79-1.07,1,1,0,0,0-.39-.85,3.19,3.19,0,0,0-1.11-.53q-.74-.21-2.28-.54C57.2,63.28,56.12,62.19,56.12,60.45Z"/><path class="cls-1" d="M76.58,58.64A5.79,5.79,0,0,1,78,62.72v.6a.57.57,0,0,1-.17.42.58.58,0,0,1-.42.18h-7.6v.13a3.2,3.2,0,0,0,.89,2.29,3,3,0,0,0,2.2.82,4.1,4.1,0,0,0,1.71-.28,3.6,3.6,0,0,0,1.1-.82.92.92,0,0,1,.32-.24.81.81,0,0,1,.38-.07H77a.6.6,0,0,1,.44.18.48.48,0,0,1,.15.42A2.4,2.4,0,0,1,77,67.57a4.18,4.18,0,0,1-1.61,1.06,6.56,6.56,0,0,1-2.51.43,4.83,4.83,0,0,1-2.52-.65,4.76,4.76,0,0,1-1.76-1.8A6.43,6.43,0,0,1,67.79,64c0-.45,0-.78,0-1s0-.57,0-1a6,6,0,0,1,.78-2.47,4.89,4.89,0,0,1,1.75-1.75,5,5,0,0,1,2.53-.64A4.76,4.76,0,0,1,76.58,58.64ZM76,62.06V62a2.83,2.83,0,0,0-.86-2.15,3.43,3.43,0,0,0-4.44,0A2.84,2.84,0,0,0,69.76,62v.07Z"/><path class="cls-1" d="M88,61.57v-.28a2,2,0,0,0-.72-1.67A2.87,2.87,0,0,0,85.42,59a2.67,2.67,0,0,0-1.38.3,3.43,3.43,0,0,0-.94.9.77.77,0,0,1-.28.24,1.22,1.22,0,0,1-.42.07h-.67a.61.61,0,0,1-.43-.18.49.49,0,0,1-.16-.42,2.34,2.34,0,0,1,.65-1.32,4.44,4.44,0,0,1,1.56-1.07,5.14,5.14,0,0,1,2.07-.42,4.81,4.81,0,0,1,3.33,1.15A4.12,4.12,0,0,1,90,61.51v6.74a.58.58,0,0,1-.18.42.61.61,0,0,1-.42.17H88.6a.58.58,0,0,1-.59-.59v-.91a2.62,2.62,0,0,1-1.5,1.26,6.13,6.13,0,0,1-2.3.46,4.78,4.78,0,0,1-2-.4,3.24,3.24,0,0,1-1.36-1.12A2.76,2.76,0,0,1,80.36,66a3.07,3.07,0,0,1,1.24-2.6,7.32,7.32,0,0,1,3.29-1.27Zm0,1.77-2.61.42a6,6,0,0,0-2.23.72,1.46,1.46,0,0,0-.8,1.25,1.28,1.28,0,0,0,.51,1,2.29,2.29,0,0,0,1.55.44,3.69,3.69,0,0,0,2.58-.9,3,3,0,0,0,1-2.37Z"/><path class="cls-1" d="M100.05,57.53a.58.58,0,0,1,.18.42v.71a.58.58,0,0,1-.18.42.57.57,0,0,1-.42.17H98.35a2.29,2.29,0,0,0-2.54,2.55v6.45a.58.58,0,0,1-.18.42.61.61,0,0,1-.42.17h-.82a.58.58,0,0,1-.59-.59V58a.61.61,0,0,1,.17-.42.58.58,0,0,1,.42-.18h.82a.62.62,0,0,1,.6.6v.69a2.74,2.74,0,0,1,1.06-1,3.69,3.69,0,0,1,1.61-.31h1.15A.58.58,0,0,1,100.05,57.53Z"/><path class="cls-1" d="M110.32,65.44a1.57,1.57,0,0,1,.31-.46.64.64,0,0,1,.42-.14h.67a.61.61,0,0,1,.42.17.54.54,0,0,1,.17.39,2.91,2.91,0,0,1-.59,1.61A4.86,4.86,0,0,1,110,68.47a5.54,5.54,0,0,1-2.65.59,5.4,5.4,0,0,1-2.72-.66,4.53,4.53,0,0,1-1.76-1.82,6,6,0,0,1-.69-2.6c0-.17,0-.51,0-1s0-.61,0-.76a5.88,5.88,0,0,1,1.53-3.66,4.71,4.71,0,0,1,3.64-1.42,5.59,5.59,0,0,1,2.64.59,4.6,4.6,0,0,1,1.7,1.43,3.25,3.25,0,0,1,.63,1.61.49.49,0,0,1-.16.42.65.65,0,0,1-.43.17h-.67a.64.64,0,0,1-.42-.13,1.57,1.57,0,0,1-.31-.46,3,3,0,0,0-3-1.73,3.08,3.08,0,0,0-2.12.82,3.61,3.61,0,0,0-1,2.48c0,.16,0,.42,0,.79s0,.59,0,.75a3.66,3.66,0,0,0,1,2.48,3,3,0,0,0,2.11.81A2.94,2.94,0,0,0,110.32,65.44Z"/><path class="cls-1" d="M125.55,68.67a.61.61,0,0,1-.42.17h-.82a.61.61,0,0,1-.42-.17.58.58,0,0,1-.18-.42V62.41a3.57,3.57,0,0,0-.81-2.52,3,3,0,0,0-2.28-.86,3,3,0,0,0-2.26.86,3.48,3.48,0,0,0-.83,2.52v5.84a.58.58,0,0,1-.18.42.61.61,0,0,1-.42.17h-.82a.58.58,0,0,1-.59-.59V53.75a.61.61,0,0,1,.17-.42.57.57,0,0,1,.42-.17h.82a.57.57,0,0,1,.42.17.58.58,0,0,1,.18.42v4.89a3.81,3.81,0,0,1,1.33-1.08,4.72,4.72,0,0,1,2.09-.43,5,5,0,0,1,2.48.6,4.28,4.28,0,0,1,1.69,1.71,5.53,5.53,0,0,1,.61,2.64v6.17A.58.58,0,0,1,125.55,68.67Z"/></g></g></svg>