<svg xmlns="http://www.w3.org/2000/svg" width="900.001" height="810" viewBox="0 0 900.001 810">
  <g id="Group_18" data-name="Group 18" transform="translate(-1019 -269)">
    <g id="Union_4" data-name="Union 4" transform="translate(-4305 113)" fill="#5d9bff" opacity="0.171">
      <path d="M 6223.75048828125 965.750732421875 L 6134 965.750732421875 L 6043.99951171875 965.750732421875 L 5954.2509765625 965.750732421875 L 5954.2509765625 876.250244140625 L 6043.99951171875 876.250244140625 L 6044.24951171875 876.250244140625 L 6044.24951171875 876.000244140625 L 6044.24951171875 786.2499389648438 L 6134 786.2499389648438 L 6134.25 786.2499389648438 L 6134.25 785.9999389648438 L 6134.25 696.24951171875 L 6223.75048828125 696.24951171875 L 6223.75048828125 785.9999389648438 L 6223.75048828125 876.000244140625 L 6223.75048828125 965.750732421875 Z M 5863.75048828125 965.750732421875 L 5774 965.750732421875 L 5683.99951171875 965.750732421875 L 5594.0009765625 965.750732421875 L 5504.25048828125 965.750732421875 L 5504.25048828125 876.000244140625 L 5504.25048828125 875.750244140625 L 5504.00048828125 875.750244140625 L 5414.25 875.750244140625 L 5414.25 785.9999389648438 L 5414.25 785.7499389648438 L 5414 785.7499389648438 L 5324.24951171875 785.7499389648438 L 5324.24951171875 696.24951171875 L 5414 696.24951171875 L 5414.25 696.24951171875 L 5414.25 695.99951171875 L 5414.25 606.250732421875 L 5504.00048828125 606.250732421875 L 5504.25048828125 606.250732421875 L 5504.25048828125 606.000732421875 L 5504.25048828125 516.250244140625 L 5593.7509765625 516.250244140625 L 5593.7509765625 606.000732421875 L 5593.7509765625 695.99951171875 L 5593.7509765625 696.24951171875 L 5593.7509765625 785.9999389648438 L 5593.7509765625 876.000244140625 L 5593.7509765625 876.250244140625 L 5594.0009765625 876.250244140625 L 5683.99951171875 876.250244140625 L 5774 876.250244140625 L 5774.25 876.250244140625 L 5774.25 876.000244140625 L 5774.25 786.2499389648438 L 5863.75048828125 786.2499389648438 L 5863.75048828125 876.000244140625 L 5863.75048828125 965.750732421875 Z M 5683.74951171875 785.7499389648438 L 5594.2509765625 785.7499389648438 L 5594.2509765625 696.24951171875 L 5683.74951171875 696.24951171875 L 5683.74951171875 785.7499389648438 Z M 5953.7509765625 695.74951171875 L 5864.00048828125 695.74951171875 L 5774.25 695.74951171875 L 5774.25 606.000732421875 L 5774.25 605.750732421875 L 5774 605.750732421875 L 5684.24951171875 605.750732421875 L 5684.24951171875 516.000244140625 L 5684.24951171875 425.9999389648438 L 5684.24951171875 336.2496032714844 L 5774 336.2496032714844 L 5863.75048828125 336.2496032714844 L 5863.75048828125 425.9999389648438 L 5863.75048828125 515.750244140625 L 5774 515.750244140625 L 5774 516.250244140625 L 5863.75048828125 516.250244140625 L 5863.75048828125 606.000732421875 L 5864.25048828125 606.000732421875 L 5864.25048828125 516.000244140625 L 5864.25048828125 425.9999389648438 L 5864.25048828125 335.9996032714844 L 5864.25048828125 246.2507171630859 L 5954.0009765625 246.2507171630859 L 6043.74951171875 246.2507171630859 L 6043.74951171875 335.7496032714844 L 5954.0009765625 335.7496032714844 L 5953.7509765625 335.7496032714844 L 5953.7509765625 335.9996032714844 L 5953.7509765625 425.9999389648438 L 5953.7509765625 426.2499389648438 L 5954.0009765625 426.2499389648438 L 6043.99951171875 426.2499389648438 L 6133.75 426.2499389648438 L 6133.75 515.750244140625 L 6043.99951171875 515.750244140625 L 6043.74951171875 515.750244140625 L 6043.74951171875 516.000244140625 L 6043.74951171875 605.750732421875 L 5954.0009765625 605.750732421875 L 5953.7509765625 605.750732421875 L 5953.7509765625 606.000732421875 L 5953.7509765625 695.74951171875 Z M 5683.74951171875 515.750244140625 L 5594.2509765625 515.750244140625 L 5594.2509765625 426.2499389648438 L 5683.74951171875 426.2499389648438 L 5683.74951171875 515.750244140625 Z M 6133.75 245.7507171630859 L 6044.24951171875 245.7507171630859 L 6044.24951171875 156.2503814697266 L 6133.75 156.2503814697266 L 6133.75 245.7507171630859 Z" stroke="none"/>
      <path d="M 6223.50048828125 965.500732421875 L 6223.50048828125 876.000244140625 L 6223.50048828125 785.9999389648438 L 6223.50048828125 696.49951171875 L 6134.5 696.49951171875 L 6134.5 785.9999389648438 L 6134.5 786.4999389648438 L 6134 786.4999389648438 L 6044.49951171875 786.4999389648438 L 6044.49951171875 875.500244140625 L 6134 875.500244140625 L 6134 876.500244140625 L 6044.49951171875 876.500244140625 L 6044.49951171875 965.500732421875 L 6134 965.500732421875 L 6223.50048828125 965.500732421875 M 6043.49951171875 965.500732421875 L 6043.49951171875 876.500244140625 L 5954.5009765625 876.500244140625 L 5954.5009765625 965.500732421875 L 6043.49951171875 965.500732421875 M 5863.50048828125 965.500732421875 L 5863.50048828125 876.000244140625 L 5863.50048828125 786.4999389648438 L 5774.5 786.4999389648438 L 5774.5 876.000244140625 L 5774.5 965.500732421875 L 5863.50048828125 965.500732421875 M 5773.5 965.500732421875 L 5773.5 876.500244140625 L 5683.99951171875 876.500244140625 L 5594.5009765625 876.500244140625 L 5594.5009765625 965.500732421875 L 5683.99951171875 965.500732421875 L 5773.5 965.500732421875 M 5593.5009765625 965.500732421875 L 5593.5009765625 876.500244140625 L 5504.50048828125 876.500244140625 L 5504.50048828125 965.500732421875 L 5593.5009765625 965.500732421875 M 5593.5009765625 875.500244140625 L 5593.5009765625 785.9999389648438 L 5593.5009765625 696.49951171875 L 5504.00048828125 696.49951171875 L 5414 696.49951171875 L 5324.49951171875 696.49951171875 L 5324.49951171875 785.4999389648438 L 5414 785.4999389648438 L 5414.5 785.4999389648438 L 5414.5 785.9999389648438 L 5414.5 875.500244140625 L 5504.00048828125 875.500244140625 L 5593.5009765625 875.500244140625 M 5683.49951171875 785.4999389648438 L 5683.49951171875 696.49951171875 L 5594.5009765625 696.49951171875 L 5594.5009765625 785.4999389648438 L 5683.49951171875 785.4999389648438 M 5953.5009765625 695.49951171875 L 5953.5009765625 606.500732421875 L 5864.50048828125 606.500732421875 L 5864.50048828125 695.49951171875 L 5953.5009765625 695.49951171875 M 5863.50048828125 695.49951171875 L 5863.50048828125 606.000732421875 L 5863.50048828125 516.500244140625 L 5774.5 516.500244140625 L 5774.5 606.000732421875 L 5774.5 695.49951171875 L 5863.50048828125 695.49951171875 M 5593.5009765625 695.49951171875 L 5593.5009765625 606.500732421875 L 5504.00048828125 606.500732421875 L 5414.5 606.500732421875 L 5414.5 695.49951171875 L 5504.00048828125 695.49951171875 L 5593.5009765625 695.49951171875 M 6043.49951171875 605.500732421875 L 6043.49951171875 516.500244140625 L 5954.5009765625 516.500244140625 L 5954.5009765625 605.500732421875 L 6043.49951171875 605.500732421875 M 5953.5009765625 605.500732421875 L 5953.5009765625 516.000244140625 L 5953.5009765625 515.500244140625 L 5954.0009765625 515.500244140625 L 6043.99951171875 515.500244140625 L 6133.5 515.500244140625 L 6133.5 426.4999389648438 L 6043.99951171875 426.4999389648438 L 5954.0009765625 426.4999389648438 L 5864.50048828125 426.4999389648438 L 5864.50048828125 516.000244140625 L 5864.50048828125 605.500732421875 L 5953.5009765625 605.500732421875 M 5773.5 605.500732421875 L 5773.5 516.000244140625 L 5774 516.000244140625 L 5774 515.500244140625 L 5863.50048828125 515.500244140625 L 5863.50048828125 425.9999389648438 L 5863.50048828125 336.4996032714844 L 5774 336.4996032714844 L 5684.49951171875 336.4996032714844 L 5684.49951171875 425.4999389648438 L 5774 425.4999389648438 L 5774 426.4999389648438 L 5684.49951171875 426.4999389648438 L 5684.49951171875 516.000244140625 L 5684.49951171875 605.500732421875 L 5773.5 605.500732421875 M 5593.5009765625 605.500732421875 L 5593.5009765625 516.500244140625 L 5504.50048828125 516.500244140625 L 5504.50048828125 605.500732421875 L 5593.5009765625 605.500732421875 M 5683.49951171875 515.500244140625 L 5683.49951171875 426.4999389648438 L 5594.5009765625 426.4999389648438 L 5594.5009765625 515.500244140625 L 5683.49951171875 515.500244140625 M 5953.5009765625 425.4999389648438 L 5953.5009765625 335.9996032714844 L 5953.5009765625 335.4996032714844 L 5954.0009765625 335.4996032714844 L 6043.49951171875 335.4996032714844 L 6043.49951171875 246.5007171630859 L 5954.0009765625 246.5007171630859 L 5864.50048828125 246.5007171630859 L 5864.50048828125 335.9996032714844 L 5864.50048828125 425.4999389648438 L 5953.5009765625 425.4999389648438 M 6133.5 245.5007171630859 L 6133.5 156.5003814697266 L 6044.49951171875 156.5003814697266 L 6044.49951171875 245.5007171630859 L 6133.5 245.5007171630859 M 6224.00048828125 966.000732421875 L 6134 966.000732421875 L 6043.99951171875 966.000732421875 L 6043.99951171875 876.000244140625 L 6134 876.000244140625 L 6043.99951171875 876.000244140625 L 6043.99951171875 785.9999389648438 L 6134 785.9999389648438 L 6134 695.99951171875 L 6224.00048828125 695.99951171875 L 6224.00048828125 785.9999389648438 L 6224.00048828125 876.000244140625 L 6224.00048828125 966.000732421875 Z M 6043.99951171875 966.000732421875 L 5954.0009765625 966.000732421875 L 5954.0009765625 876.000244140625 L 6043.99951171875 876.000244140625 L 6043.99951171875 966.000732421875 Z M 5864.00048828125 966.000732421875 L 5774 966.000732421875 L 5774 876.000244140625 L 5774 785.9999389648438 L 5864.00048828125 785.9999389648438 L 5864.00048828125 876.000244140625 L 5864.00048828125 966.000732421875 Z M 5774 966.000732421875 L 5683.99951171875 966.000732421875 L 5594.0009765625 966.000732421875 L 5594.0009765625 876.000244140625 L 5683.99951171875 876.000244140625 L 5774 876.000244140625 L 5774 966.000732421875 Z M 5594.0009765625 966.000732421875 L 5504.00048828125 966.000732421875 L 5504.00048828125 876.000244140625 L 5594.0009765625 876.000244140625 L 5594.0009765625 966.000732421875 Z M 5594.0009765625 876.000244140625 L 5504.00048828125 876.000244140625 L 5414 876.000244140625 L 5414 785.9999389648438 L 5323.99951171875 785.9999389648438 L 5323.99951171875 695.99951171875 L 5414 695.99951171875 L 5504.00048828125 695.99951171875 L 5594.0009765625 695.99951171875 L 5594.0009765625 785.9999389648438 L 5594.0009765625 876.000244140625 Z M 5683.99951171875 785.9999389648438 L 5594.0009765625 785.9999389648438 L 5594.0009765625 695.99951171875 L 5683.99951171875 695.99951171875 L 5683.99951171875 785.9999389648438 Z M 5954.0009765625 695.99951171875 L 5864.00048828125 695.99951171875 L 5864.00048828125 606.000732421875 L 5954.0009765625 606.000732421875 L 5954.0009765625 695.99951171875 Z M 5864.00048828125 695.99951171875 L 5774 695.99951171875 L 5774 606.000732421875 L 5774 516.000244140625 L 5774 606.000732421875 L 5683.99951171875 606.000732421875 L 5683.99951171875 516.000244140625 L 5594.0009765625 516.000244140625 L 5594.0009765625 425.9999389648438 L 5683.99951171875 425.9999389648438 L 5683.99951171875 516.000244140625 L 5683.99951171875 425.9999389648438 L 5774 425.9999389648438 L 5683.99951171875 425.9999389648438 L 5683.99951171875 335.9996032714844 L 5774 335.9996032714844 L 5864.00048828125 335.9996032714844 L 5864.00048828125 425.9999389648438 L 5864.00048828125 516.000244140625 L 5774 516.000244140625 L 5864.00048828125 516.000244140625 L 5864.00048828125 606.000732421875 L 5864.00048828125 695.99951171875 Z M 5594.0009765625 695.99951171875 L 5504.00048828125 695.99951171875 L 5414 695.99951171875 L 5414 606.000732421875 L 5504.00048828125 606.000732421875 L 5594.0009765625 606.000732421875 L 5594.0009765625 695.99951171875 Z M 6043.99951171875 606.000732421875 L 5954.0009765625 606.000732421875 L 5954.0009765625 516.000244140625 L 6043.99951171875 516.000244140625 L 6043.99951171875 606.000732421875 Z M 5954.0009765625 606.000732421875 L 5864.00048828125 606.000732421875 L 5864.00048828125 516.000244140625 L 5864.00048828125 425.9999389648438 L 5954.0009765625 425.9999389648438 L 6043.99951171875 425.9999389648438 L 6134 425.9999389648438 L 6134 516.000244140625 L 6043.99951171875 516.000244140625 L 5954.0009765625 516.000244140625 L 5954.0009765625 606.000732421875 Z M 5594.0009765625 606.000732421875 L 5504.00048828125 606.000732421875 L 5504.00048828125 516.000244140625 L 5594.0009765625 516.000244140625 L 5594.0009765625 606.000732421875 Z M 5954.0009765625 425.9999389648438 L 5864.00048828125 425.9999389648438 L 5864.00048828125 335.9996032714844 L 5864.00048828125 246.0007171630859 L 5954.0009765625 246.0007171630859 L 6043.99951171875 246.0007171630859 L 6043.99951171875 335.9996032714844 L 5954.0009765625 335.9996032714844 L 5954.0009765625 425.9999389648438 Z M 6134 246.0007171630859 L 6043.99951171875 246.0007171630859 L 6043.99951171875 156.0003814697266 L 6134 156.0003814697266 L 6134 246.0007171630859 Z" stroke="none" fill="#5d9bff"/>
    </g>
  </g>
</svg>
